<svg width="36" height="36" viewBox="0 0 36 36" fill="none" xmlns="http://www.w3.org/2000/svg">
<path d="M18 24.8V21.8H27V24.8H18ZM22 36V33.3H18V30.3H22V27.6H25V36H22ZM27 33.3V30.3H36V33.3H27ZM29 27.55V19.1H32V21.8H36V24.8H32V27.55H29ZM35.75 15H32.65C31.8833 11.6 30.15 8.75 27.45 6.45C24.75 4.15 21.6 3 18 3C13.8213 3 10.2767 4.45533 7.366 7.366C4.45533 10.2767 3 13.8213 3 18C3 20.7 3.64167 23.1583 4.925 25.375C6.20833 27.5917 7.9 29.3667 10 30.7V25H13V36H2V33H8.05C5.61667 31.4 3.66667 29.2833 2.2 26.65C0.733333 24.0167 0 21.1333 0 18C0 15.5 0.475 13.1583 1.425 10.975C2.375 8.79167 3.65833 6.89167 5.275 5.275C6.89167 3.65833 8.79167 2.375 10.975 1.425C13.1583 0.475 15.5 0 18 0C22.4667 0 26.3583 1.43333 29.675 4.3C32.9917 7.16667 35.0167 10.7333 35.75 15Z" fill="#FCC241"/>
</svg>
