<svg width="222" height="162" viewBox="0 0 222 162" fill="none" xmlns="http://www.w3.org/2000/svg">
<g clip-path="url(#clip0_1_163)">
<path d="M181.385 153.326L192.25 151.833C192.322 150.659 192.309 149.681 192.459 148.729C192.508 148.061 192.767 147.427 193.199 146.916C193.631 146.405 194.213 146.044 194.862 145.885C196.295 145.533 197.26 146.257 198.289 147.268C199.793 148.755 201.155 150.613 203.754 150.431C204.62 150.366 205.552 150.894 206.425 151.213C207.084 151.53 207.835 151.6 208.541 151.413C209.248 151.225 209.865 150.791 210.281 150.189C214.405 145.077 214.105 141.809 208.9 137.89C206.47 136.057 203.767 134.59 201.227 132.908C200.004 132.126 198.841 131.254 197.748 130.299C195.566 128.342 194.954 125.845 195.664 122.982C195.927 121.941 196.073 120.873 196.1 119.799C196.093 118.575 196.391 117.368 196.966 116.288C197.542 115.207 198.377 114.287 199.396 113.61C204.093 110.193 209.128 110.421 214.313 112.006C216.991 112.828 218 115.13 218.554 117.53C218.736 118.312 218.105 119.532 217.473 120.204C216.554 121.188 215.212 121.038 214.059 120.451C212.016 119.331 209.618 119.046 207.369 119.656C206.103 120.073 204.862 120.561 203.65 121.117L205.656 122.493C208.19 124.188 210.789 125.799 213.245 127.599C215.896 129.61 217.727 132.516 218.398 135.777C218.626 136.631 218.965 137.451 219.407 138.216C221.616 142.036 222.429 146.507 221.707 150.861C220.997 155.133 218.065 157.441 214.17 158.804C213.03 159.209 211.937 159.738 210.913 160.382C209.265 161.492 207.308 162.049 205.324 161.974C201.741 161.745 198.393 160.852 195.553 158.485C195.145 158.205 194.649 158.087 194.159 158.152C191.423 158.543 188.7 159.078 185.958 159.456C183.658 159.756 181.333 159.946 179.007 160.043C178.314 160.106 177.62 159.924 177.047 159.528C176.473 159.133 176.056 158.549 175.867 157.878C175.415 156.371 175.195 154.803 175.216 153.228C175.337 148.063 175.555 142.901 175.867 137.74C176.336 130.012 175.665 122.343 174.799 114.68C174.753 114.308 174.734 113.93 174.721 113.558C174.669 111.419 175.704 110.076 177.463 109.971C179.958 109.828 181.645 111.158 181.736 113.421C181.828 115.684 181.893 117.928 181.899 120.184C181.951 130.932 183.026 141.705 181.378 152.413C181.362 152.72 181.362 153.026 181.378 153.333" fill="#FCC241"/>
<path d="M148.593 68.2278C146.026 70.0799 144.893 73.608 140.867 73.2623C141.317 79.1838 141.759 85.001 142.209 90.8703C142.313 91.5661 142.378 92.2672 142.404 92.9702C142.403 93.3362 142.318 93.697 142.158 94.0256C141.997 94.3543 141.764 94.6423 141.477 94.8682C141.189 95.094 140.854 95.2517 140.497 95.3296C140.14 95.4075 139.77 95.4036 139.414 95.318C138.881 95.2398 138.339 95.2398 137.805 95.318C135.695 95.5816 133.557 95.1488 131.715 94.0854C130.738 93.5441 130.138 92.3963 130.653 91.4312C131.611 89.6247 130.907 87.9096 130.607 86.2662C129.018 77.6448 128.373 68.9451 127.943 60.1803C127.839 58.0216 127.676 55.8696 127.415 53.724C127.077 50.9393 128.972 49.3546 131.643 50.2611C132.044 50.3495 132.46 50.3495 132.861 50.2611C133.604 50.1763 134.34 49.9611 135.083 49.9089C137.61 49.7394 139.265 51.0632 139.512 53.5805C139.773 56.2413 139.87 58.9216 140.053 61.5954C140.053 62.0454 140.157 62.4954 140.209 62.9454C140.405 62.9454 140.522 62.9454 140.574 62.9454C144.534 59.0064 148.497 55.0652 152.462 51.1219C153.077 50.4784 153.756 49.8994 154.488 49.3937C155.062 49.015 155.745 48.8365 156.43 48.886C157.116 48.9356 157.766 49.2103 158.279 49.6676C158.771 50.0222 159.361 50.2138 159.966 50.2154C161.393 50.2154 162.611 50.4893 163.289 51.8458C163.602 52.4358 163.708 53.114 163.589 53.7716C163.471 54.4292 163.136 55.0279 162.637 55.4717C161.586 56.4751 160.476 57.4158 159.315 58.289C157.224 59.9455 155.094 61.5498 153.133 63.0693C155.954 68.8669 158.839 74.3645 161.289 80.0251C162.546 82.9337 163.002 86.1944 163.894 89.2791C164.194 90.0112 164.56 90.7141 164.989 91.379C165.194 91.7239 165.323 92.1086 165.368 92.5076C165.413 92.9065 165.373 93.3105 165.25 93.6925C165.126 94.0745 164.923 94.4258 164.653 94.723C164.384 95.0201 164.054 95.2563 163.686 95.4158C162.344 95.9962 161.289 95.5332 160.188 93.8115C158.396 94.281 157.126 93.4267 156.214 91.9594C155.227 90.4721 154.334 88.9234 153.543 87.3226C151.661 83.2337 149.87 79.0991 148.117 74.9318C147.375 73.1841 146.814 71.3711 148.202 69.6038C148.406 69.1375 148.538 68.6427 148.593 68.1365" fill="#FCC241"/>
<path d="M71.2769 65.9058C71.6482 61.1451 72.052 56.3844 72.3843 51.6172C72.5145 49.8629 73.6285 48.676 74.7489 47.6196C75.2309 47.1696 76.3774 47.3587 77.2242 47.3717C77.8756 47.3717 78.527 47.7435 79.1784 47.6652C83.3019 47.1631 85.0411 49.1521 84.2008 53.2476C83.4061 57.1605 82.5006 61.1647 82.2466 65.1623C81.986 69.5969 82.455 74.0707 82.5332 78.5314C82.5332 79.4378 82.1489 80.3508 82.1489 81.2639C82.193 82.1319 82.3372 82.9919 82.5788 83.8268C83.2823 86.8267 83.9858 87.1788 86.5394 85.4246C88.1281 84.264 89.6284 82.9866 91.0276 81.603C91.465 81.1738 91.7605 80.6207 91.8744 80.0183C92.4737 76.5097 93.1121 73.0011 93.5225 69.4665C94.0428 64.6513 93.9333 59.7887 93.1968 55.0019C93.0783 54.4288 92.8211 53.8935 92.4476 53.4432C92.1541 53.1177 91.9564 52.7172 91.8765 52.286C91.7965 51.8549 91.8373 51.41 91.9945 51.0007C92.1517 50.5914 92.4191 50.2337 92.767 49.9672C93.1149 49.7008 93.5297 49.536 93.9654 49.4912C95.6786 49.2108 97.3853 48.9369 99.0985 48.6891C102.356 48.2195 104.31 49.6543 104.31 52.9215C104.31 60.8582 104.147 68.8013 102.505 76.6075C101.426 81.8511 98.5953 86.5706 94.48 89.9896C92.3028 91.897 89.5516 93.0217 86.6631 93.1851C81.9339 93.4655 75.5566 89.2266 73.8629 84.1137C72.6969 80.5987 72.2344 76.8162 71.7524 73.112C71.4527 70.7578 71.7003 68.3252 71.7003 65.9384H71.2899" fill="#FCC241"/>
<path d="M63.0562 137.349H54.9722C54.9722 137.538 54.907 137.891 54.9201 138.236C55.1893 142.971 55.4586 147.705 55.7278 152.44C55.7896 153.188 55.8027 153.94 55.7669 154.69C55.7499 155.427 55.4642 156.132 54.9639 156.672C54.4635 157.213 53.783 157.552 53.0505 157.625C52.3128 157.695 51.576 157.481 50.9902 157.027C50.4044 156.573 50.0137 155.912 49.8977 155.179C49.5264 153.014 49.3245 150.81 49.129 148.618C48.4776 141.445 47.6829 134.31 47.3312 127.143C47.0771 121.926 47.3702 116.709 47.5722 111.492C47.6764 108.635 49.4157 106.666 51.9431 105.622C61.2127 101.749 77.4002 107.761 76.9051 123.074C76.8146 125.822 75.6441 128.424 73.6481 130.313C72.1629 131.806 71.0424 133.691 69.3031 136.078C69.9546 137.565 71.2574 140.401 72.5602 143.251C73.8044 145.977 75.231 148.638 76.2667 151.442C77.2243 154.051 75.2505 156.359 72.8664 155.662C72.0808 155.488 71.3475 155.131 70.7269 154.618C70.1063 154.106 69.6161 153.453 69.2967 152.714C68.5475 150.842 67.818 148.964 67.0558 147.092C65.753 143.832 64.398 140.571 63.0757 137.349M54.7442 131.05C58.7699 129.745 62.6132 128.591 66.3718 127.221C68.2218 126.569 69.0426 125.03 68.7755 122.95C68.4811 120.568 67.5393 118.312 66.0526 116.428C65.8775 116.14 65.6183 115.913 65.31 115.776C61.9422 115.046 58.5875 114.185 55.1806 113.735C53.3436 113.494 52.9919 115.235 53.8322 116.539C54.5036 117.606 54.8269 118.855 54.7572 120.113C54.7181 123.569 54.7572 127.032 54.7572 131.023" fill="#FCC241"/>
<path d="M90.7152 138.574C90.5458 141.183 89.5622 143.681 90.1289 146.531C90.7803 149.7 89.8293 152.876 88.1747 155.713C87.866 156.276 87.3761 156.718 86.7847 156.966C86.1933 157.215 85.5352 157.256 84.9176 157.082C84.2717 156.927 83.6948 156.563 83.2757 156.047C82.8567 155.531 82.6188 154.891 82.5986 154.226C82.553 153.528 82.7745 152.817 82.7159 152.126C82.6247 150.991 82.3836 149.863 82.2534 148.728C82.0631 147.824 82.0039 146.897 82.0775 145.976C83.8819 136.057 85.7645 126.151 87.608 116.238C88.1104 113.081 89.4185 110.107 91.4057 107.604C93.0928 105.55 95.6007 105.687 96.9231 108.021C97.0403 108.223 97.112 108.53 97.2814 108.608C99.431 109.593 99.887 111.719 100.61 113.617C105.13 125.211 108.92 137.077 111.958 149.146C112.388 150.822 112.772 152.406 111.443 153.932C111.215 154.187 111.313 154.735 111.274 155.145C111.256 155.861 110.984 156.546 110.507 157.079C110.029 157.611 109.377 157.954 108.668 158.048C107.189 158.224 106.062 157.395 105.359 155.974C103.131 151.278 102.017 146.257 100.838 141.242C100.779 141.023 100.671 140.821 100.522 140.65C100.373 140.479 100.187 140.345 99.9782 140.257C96.9492 139.663 93.9071 139.161 90.6956 138.6M97.9523 131.466L98.278 131.049L94.4803 120.399L94.083 120.458C93.4316 123.758 92.7801 127.057 92.1287 130.599L97.9914 131.44" fill="#FCC241"/>
<path d="M202.549 74.051C201.135 74.5205 199.826 74.8988 198.575 75.414C198.373 75.5243 198.201 75.6812 198.071 75.8718C197.942 76.0623 197.86 76.281 197.833 76.5096C198.028 82.1376 198.282 87.7656 198.53 93.3871C198.53 94.2349 198.705 95.0762 198.679 95.9175C198.694 96.4424 198.528 96.9562 198.209 97.373C197.89 97.7898 197.437 98.084 196.927 98.2065C195.885 98.5065 195.116 98.0304 194.282 97.3457C191.97 95.4414 192.055 92.735 191.677 90.1721C190.133 79.8812 189.977 69.499 189.781 59.1168C189.781 57.9429 189.729 56.7691 189.703 55.5952C189.623 54.8479 189.608 54.0952 189.657 53.3453C189.996 51.1867 191.514 49.615 192.693 47.9259C192.973 47.5151 194.523 47.5933 195.207 47.9651C195.878 48.3435 196.653 48.4924 197.416 48.389C199.558 48.1427 201.716 48.0556 203.871 48.1281C209.766 48.5324 213.766 52.3344 215.004 58.5168C216.306 65.0774 214.183 68.0186 208.646 71.5598C207.662 72.2119 207.271 72.6293 207.597 73.8292C209.141 79.4377 210.607 85.0592 212.053 90.6938C212.561 92.6959 212.945 94.724 213.356 96.7457C213.681 98.3304 213.075 99.5565 211.805 99.9477C210.535 100.339 209.2 99.6412 208.678 98.05C206.842 92.1807 204.985 86.3113 203.317 80.442C202.848 78.779 203.024 76.94 202.874 75.1857C202.801 74.8089 202.692 74.4399 202.549 74.0836M197.702 68.8273C200.888 67.9664 203.871 67.2034 206.822 66.3165C207.478 66.0994 208.032 65.6493 208.379 65.0513C209.421 62.984 208.535 59.3711 206.763 57.9429C203.676 55.4582 200.08 54.7735 195.963 54.9365C196.536 59.5016 197.096 63.9818 197.702 68.8273Z" fill="#FCC241"/>
<path d="M17.6141 115.163C15.751 115.163 13.875 115.274 12.0185 115.124C10.8682 114.972 9.74531 114.658 8.68325 114.191C6.54663 113.356 4.44259 112.43 2.33854 111.517C0.625333 110.774 -0.123798 109.685 0.00648388 108.224C0.0784247 107.464 0.414499 106.753 0.956123 106.216C1.49775 105.678 2.21061 105.348 2.97042 105.283C5.4303 104.937 7.91255 104.776 10.3965 104.8C14.5655 104.905 18.728 105.231 22.8905 105.55C23.848 105.629 24.7665 106.202 25.7241 106.274C27.3331 106.418 28.9812 106.326 30.5706 106.378C31.1288 106.321 31.6916 106.425 32.1926 106.678C34.01 108.152 36.2509 107.905 38.3159 108.374C39.3211 108.67 40.3013 109.045 41.2472 109.496C41.6706 109.665 42.081 109.887 42.55 110.044C43.1879 110.22 43.7532 110.595 44.1642 111.114C44.5752 111.634 44.8106 112.271 44.8364 112.933C44.8882 113.627 44.6791 114.315 44.2501 114.863C43.8211 115.411 43.2031 115.778 42.5174 115.893C39.9632 116.145 37.3936 116.202 34.8308 116.063C31.9255 115.919 29.0398 115.509 26.1475 115.228C25.9395 115.228 25.7321 115.25 25.5287 115.293C25.6785 124.893 25.8218 134.414 25.9912 143.936C25.957 144.353 26.0502 144.772 26.2583 145.136C27.3201 146.44 27.2028 147.783 26.7273 149.257C26.5567 149.935 26.4714 150.632 26.4732 151.331C26.4276 152.035 26.5058 152.746 26.4732 153.444C26.2908 155.492 25.0467 156.809 23.3595 156.816C21.6724 156.822 20.7539 155.596 20.2327 153.6C18.9299 148.514 18.9625 143.336 18.7931 138.158C18.5456 130.749 18.1417 123.347 17.8356 115.939C17.8356 115.763 17.7639 115.587 17.6792 115.163" fill="#FCC241"/>
<path d="M111.671 87.3686C109.717 86.136 109.508 84.1535 109.385 82.3209C108.994 76.3212 108.733 70.3149 108.492 64.3086C108.336 60.9305 108.232 57.5524 108.114 54.1677C108.1 53.6543 108.116 53.1404 108.16 52.6287C108.297 50.9005 109.534 50.0201 111.248 50.1766C112.631 50.2624 114.02 50.2275 115.397 50.0722C117.026 49.9288 118.654 49.4657 120.27 49.4788C122.986 49.4788 124.146 51.6244 122.934 54.0438C122.77 54.3689 122.689 54.7297 122.699 55.0938C123.307 65.9281 123.924 76.7603 124.549 87.5903V88.0142C124.738 92.4684 123.435 93.6357 119.078 93.0031C117.267 92.7423 115.436 92.6118 113.612 92.4162C112.355 92.2858 111.189 91.9597 110.642 90.6423C110.095 89.325 110.642 88.3663 111.665 87.3816" fill="#FCC241"/>
<path d="M151.114 118.964C151.421 123.001 151.72 127.051 152.046 131.355L157.817 130.807C158.886 130.66 159.963 130.577 161.042 130.56C161.806 130.536 162.553 130.786 163.15 131.264C163.746 131.742 164.154 132.417 164.299 133.168C164.456 133.943 164.308 134.75 163.886 135.418C163.463 136.087 162.799 136.566 162.032 136.755C160.121 137.21 158.179 137.517 156.221 137.675C154.991 137.738 153.758 137.738 152.528 137.675C152.886 140.837 153.336 143.818 153.518 146.805C153.596 148.109 153.166 149.446 152.912 150.757C152.776 151.167 152.585 151.558 152.346 151.917C156.703 152.27 160.931 152.57 165.159 152.954C166.001 152.989 166.838 153.101 167.66 153.287C168.331 153.438 168.93 153.817 169.354 154.359C169.779 154.9 170.004 155.572 169.992 156.261C170 156.952 169.761 157.623 169.317 158.153C168.874 158.683 168.256 159.036 167.575 159.15C166.515 159.341 165.441 159.442 164.364 159.45C161.003 159.554 157.635 159.587 154.274 159.698C153.056 159.737 151.85 159.985 150.632 160.043C148.098 160.174 146.359 158.895 146.203 156.378C146.066 154.076 146.424 151.741 146.561 149.42C146.58 149.144 146.58 148.867 146.561 148.592C145.825 139.611 144.796 130.644 145.082 121.612C145.093 121.095 145.045 120.579 144.939 120.073C144.288 116.812 145.278 113.982 147.206 111.419C148.203 110.115 149.649 109.919 151.153 110.18C153.414 110.578 155.655 111.132 157.922 111.484C159.652 111.686 161.391 111.793 163.133 111.804C165.315 111.869 166.722 112.932 166.826 114.68C166.931 116.428 165.647 117.751 163.491 117.941C159.485 118.325 155.479 118.593 151.114 118.984" fill="#FCC241"/>
<path d="M131.389 143.329C132.04 139.736 132.692 136.156 133.285 132.556C134.427 125.752 135.556 118.948 136.672 112.144C136.887 110.839 137.46 109.718 138.809 109.248C141.004 108.485 143.03 110.259 142.665 112.763C141.785 118.789 140.711 124.795 139.864 130.828C138.848 137.88 137.899 144.942 137.017 152.016C136.724 154.305 136.19 156.275 133.584 156.901C133.311 156.966 133.089 157.298 132.855 157.553C131.167 159.196 128.946 159.105 127.474 157.24C126.94 156.522 126.502 155.737 126.171 154.905C123.298 148.123 121.931 140.916 120.309 133.782C119.351 129.576 118.426 125.356 117.371 121.176C117.045 119.872 116.25 118.743 115.788 117.491C115.283 116.238 114.899 114.938 114.641 113.611C114.522 112.974 114.631 112.316 114.949 111.751C115.267 111.187 115.774 110.753 116.381 110.526C116.969 110.204 117.653 110.101 118.31 110.236C118.967 110.371 119.556 110.735 119.97 111.263C120.834 112.419 121.495 113.713 121.924 115.091C123.982 121.815 125.872 128.584 127.924 135.308C128.751 138.034 129.839 140.682 130.809 143.362H131.356" fill="#FCC241"/>
<path d="M172.317 55.315C172.552 59.2866 172.773 63.1407 173.021 67.2819C175.164 67.1188 177.196 66.9623 179.228 66.8254C180.441 66.705 181.658 66.6527 182.876 66.6689C185.013 66.7732 185.945 67.771 186.133 69.9296C186.166 70.209 186.218 70.4858 186.29 70.7578C186.464 71.2506 186.481 71.7857 186.338 72.2884C186.194 72.7911 185.897 73.2364 185.489 73.5621C184.616 74.2533 183.71 74.1099 182.707 73.7447C182.039 73.5846 181.343 73.5846 180.675 73.7447C179.886 73.8684 179.111 74.0693 178.362 74.3446C176.662 74.9577 175.105 75.049 174.043 73.2686C173.991 73.1903 173.789 73.2099 173.392 73.1186C173.403 77.8025 173.708 82.481 174.304 87.1267C176.909 87.1267 179.398 87.1267 181.912 87.1267C182.805 87.1267 183.697 87.0485 184.59 87.042C185.892 87.042 187.084 87.2376 187.638 88.5875C188.192 89.9375 187.638 90.8701 186.622 91.6526C187.488 93.8895 187.169 95.6503 183.88 96.2698C182.684 96.5136 181.464 96.6186 180.245 96.5829C178.251 96.4916 176.382 96.4785 174.538 97.5546C172.975 98.4611 171.216 97.3915 170.819 95.5394C170.571 94.3917 170.461 93.2178 170.278 92.057C170.26 91.6815 170.174 91.3125 170.024 90.9679C167.458 86.8333 167.953 82.0922 167.477 77.5793C166.878 71.7882 166.591 65.9645 166.246 60.1474C166.142 58.3605 165.725 56.4758 167.106 54.8846C167.262 54.702 167.164 54.2324 167.106 53.9455C166.702 51.6695 168.487 48.9761 170.806 48.8913C175.366 48.7348 179.925 48.7413 184.485 48.8913C186.576 48.95 187.547 50.1956 187.43 51.8977C187.286 54.0042 186.238 55.0411 184.068 55.0672C181.065 55.1063 178.062 55.0672 175.053 55.0672C174.226 55.0672 173.405 55.2302 172.376 55.3411" fill="#FCC241"/>
<path d="M40.0943 91.262C39.7747 92.4326 39.3898 93.5844 38.9413 94.7118C38.3531 95.8355 37.7006 96.9242 36.9871 97.9725C36.7528 98.3916 36.4756 98.785 36.1598 99.1464C35.7311 99.608 35.2477 100.015 34.7202 100.359C33.8842 100.881 33.0136 101.345 32.1145 101.748C31.0592 102.218 29.9779 102.661 28.7663 102.401C28.6651 102.381 28.5613 102.381 28.4601 102.401C27.5309 102.563 26.5773 102.519 25.6674 102.269C24.7575 102.02 23.9139 101.573 23.1967 100.959C21.7962 99.8833 20.4608 98.703 19.1645 97.4965C17.6101 96.0406 16.2128 94.4253 14.9955 92.6771C13.5683 90.7234 12.3541 88.6224 11.3737 86.41C10.9828 85.5035 10.3314 84.7144 9.8624 83.8014C9.53899 83.1517 9.26042 82.4806 9.02861 81.7928C8.5596 80.4885 8.06452 79.1842 7.68019 77.8799C7.54361 77.1425 7.45009 76.3978 7.40009 75.6495C7.2177 74.567 6.95713 73.4975 6.78777 72.3888C6.58583 71.0845 6.43601 69.7802 6.26013 68.4303C5.94094 66.0564 5.60873 63.6891 5.29606 61.3153C5.17229 60.3567 5.15273 59.3589 5.03548 58.4198C4.88565 57.2003 4.67719 55.9873 4.4948 54.7743C4.3124 53.5613 4.07137 52.1657 3.91503 50.8614C3.68053 48.7832 3.46339 46.6985 3.26363 44.6073C3.17243 43.5508 3.18547 42.4878 3.11381 41.4313C3.05519 40.5053 2.95749 39.5792 2.87932 38.6532C2.76206 37.3032 2.6448 35.9533 2.54057 34.5968C2.47543 33.7621 2.4103 32.9208 2.39076 32.0861C2.39076 30.7426 2.39076 29.3927 2.39076 28.0493C2.39076 26.7058 2.35166 25.4407 2.33864 24.1364C2.33864 22.1799 2.29306 20.2692 2.28003 18.3388C2.28003 17.0345 2.23443 15.7302 2.28003 14.4259C2.35169 12.8281 2.49499 11.2304 2.64482 9.63262C2.72579 9.2064 2.83459 8.78595 2.97052 8.37398C3.1464 7.63705 3.2441 6.88056 3.48512 6.1632C3.67743 5.57141 3.96333 5.01435 4.33194 4.51327C5.26997 3.26766 6.2862 2.08075 7.25028 0.861238C7.39941 0.637362 7.61795 0.468821 7.87223 0.381608C8.12651 0.294395 8.40238 0.293355 8.65731 0.378648C9.0242 0.456086 9.3967 0.504064 9.77123 0.522121C10.137 0.555434 10.4803 0.713543 10.7435 0.969976C11.0068 1.22641 11.1741 1.5656 11.2173 1.93076C11.2807 2.54606 11.3111 3.16431 11.3085 3.78286C11.4128 4.72195 11.5495 5.66104 11.7385 6.58057C11.9569 7.33137 12.1116 8.09928 12.201 8.87613C12.3278 9.76581 12.5461 10.64 12.8524 11.4847C13.3279 13.3042 13.7839 15.1237 14.305 16.9367C14.5981 17.9671 15.0086 18.9714 15.3473 20.0018C15.4776 20.3865 15.5557 20.7974 15.6599 21.1952C16.155 23.0473 17.1647 24.6516 18.0767 26.3015C18.9887 27.9515 19.9202 29.6927 21.008 31.2709C22.5453 33.4882 23.6137 35.9533 24.8709 38.301C25.5806 39.7509 26.19 41.2478 26.6948 42.7813C27.4895 44.8747 28.2842 46.9811 28.9552 49.1267C29.8932 52.094 30.6944 55.1069 31.5608 58.0937C31.9256 59.3198 32.4142 60.5067 32.7464 61.7327C33.0265 62.7566 33.1828 63.8131 33.3978 64.8565C33.6725 66.5827 34.1627 68.2676 34.8569 69.8715C35.5802 71.4564 35.9131 73.1918 35.8276 74.9322C35.7559 76.2952 36.036 77.6777 35.9513 79.0342C35.8536 80.5146 36.746 81.7276 36.8112 83.1231C36.8893 84.8513 37.8404 86.2991 38.2052 87.936C38.409 88.5069 38.6664 89.0571 38.9738 89.5794C39.1367 89.9511 39.2474 90.3424 39.3908 90.7272C39.4819 90.9685 39.5927 91.1967 39.6969 91.438L40.1073 91.2424" fill="#FCC241"/>
<path d="M57.8842 94.7179C56.9592 94.7179 56.1059 94.7179 55.2786 94.7179C54.891 94.7126 54.5058 94.6578 54.1321 94.5549C53.5523 94.4049 52.9921 94.1962 52.4254 94.0071C51.7873 93.7516 51.1347 93.5339 50.4712 93.3549C49.6381 93.2524 48.8562 92.8974 48.2303 92.3376C47.7079 91.8812 47.1503 91.4669 46.5627 91.0985C46.2461 90.8497 46.004 90.5186 45.8627 90.1414C45.7214 89.7641 45.6864 89.3553 45.7615 88.9594C45.8266 87.8508 45.8266 86.7421 45.8853 85.6335C45.9098 85.4014 45.9878 85.1781 46.1132 84.9813C46.5171 84.3292 46.1588 83.7162 45.8592 83.1814C45.6153 82.6854 45.4672 82.1477 45.4227 81.5967C45.2498 80.745 45.0191 79.9062 44.7323 79.0859C44.6073 78.8256 44.5196 78.549 44.4717 78.2642C44.3813 77.2277 44.0488 76.2269 43.5011 75.3426C43.1324 74.6928 42.6692 74.1016 42.1266 73.5883C41.8292 73.2701 41.4609 73.0265 41.0518 72.8775C40.5812 72.7063 40.1631 72.4155 39.8388 72.0336C39.5144 71.6517 39.2949 71.1919 39.2018 70.6993C38.5504 68.5929 38.4657 66.4017 38.14 64.243C37.9142 62.565 37.5303 60.912 36.9935 59.3063C36.3421 57.4803 35.7949 55.6217 35.1826 53.7826C34.9741 53.1305 34.6615 52.55 34.453 51.924C34.0491 50.724 33.7039 49.5045 33.287 48.3046C32.9352 47.2677 32.5314 46.2503 32.1405 45.2264C31.6324 43.9221 31.196 42.5591 30.5967 41.3135C30.0495 40.1592 29.2939 39.1028 28.6946 37.9811C28.4801 37.5356 28.2909 37.0784 28.1279 36.6116C27.962 35.9756 27.6239 35.3978 27.1507 34.9421C26.7599 34.629 26.6231 33.9964 26.343 33.5269C25.7633 32.5552 25.1509 31.6096 24.5646 30.6379C24.0956 29.8618 23.6071 29.0988 23.2097 28.2902C22.8124 27.4815 22.4215 26.4576 22.0633 25.525C21.6529 24.4555 21.249 23.3795 20.8972 22.2643C20.4998 21.0252 20.1937 19.7601 19.7963 18.521C19.2817 16.8971 18.6694 15.3059 18.1874 13.669C17.7053 12.0321 17.3666 10.4083 16.9497 8.83007C16.7152 7.94315 16.4286 7.06275 16.2006 6.17583C15.8159 4.86079 15.5006 3.52638 15.256 2.17816C15.0411 0.632575 16.0703 -0.18261 17.6858 0.0130344C19.3908 0.317222 21.025 0.934067 22.5062 1.83253C23.9067 2.5825 25.3268 3.29986 26.6492 4.16069C27.3662 4.70716 28.0215 5.33039 28.6034 6.01931C29.4111 6.84754 30.2384 7.65621 30.994 8.53008C32.1014 9.83438 33.1567 11.1387 34.2511 12.443C35.1891 13.5907 36.0881 14.7646 37.0522 15.8928C38.1661 17.1971 39.3777 18.4362 40.446 19.8057C41.271 20.8848 42.0364 22.0081 42.7389 23.1708C43.8007 24.8207 44.8104 26.5098 45.8657 28.1662C46.3999 29.0075 47.0383 29.7836 47.5529 30.6379C48.2629 31.8183 48.8948 33.0574 49.5918 34.2508C49.8198 34.6421 50.165 34.9616 50.419 35.3399C51.3571 36.7159 52.23 38.1376 53.2266 39.468C54.2174 40.783 55.1205 42.162 55.93 43.5961C56.5293 44.6721 57.1677 45.7286 57.7735 46.8046C57.8941 47.0484 57.9817 47.3072 58.034 47.5742C58.3858 49.0676 59.2977 50.3001 59.9166 51.6696C60.1576 52.2174 60.2748 52.8239 60.5093 53.3783C60.8937 54.2848 61.4213 55.1391 61.708 56.0651C62.5548 58.778 63.3169 61.5171 64.1051 64.2496C64.5872 65.9191 65.0692 67.5886 65.5122 69.2646C65.6425 69.7537 65.6164 70.2754 65.7141 70.7776C65.7662 71.058 65.9877 71.3188 66.0072 71.5993C66.0593 72.2906 66.0398 72.9818 66.0463 73.6731C66.0332 73.8163 66.0332 73.9603 66.0463 74.1035C66.1961 74.8731 66.3916 75.6296 66.5154 76.4056C66.574 76.7382 66.4567 77.0969 66.5154 77.436C66.6196 78.7403 66.8085 80.0772 66.8411 81.401C66.8219 82.1498 66.7058 82.8929 66.4958 83.6118C66.17 85.2093 65.7568 86.7877 65.2581 88.3399C64.7956 89.6442 64.4374 91.0528 63.2518 91.9528C62.6643 92.4087 62.0485 92.8269 61.4083 93.2049C60.68 93.6369 59.9299 94.0309 59.161 94.3853C58.7794 94.5335 58.3846 94.6449 57.9819 94.7179" fill="#FCC241"/>
</g>
<defs>
<clipPath id="clip0_1_163">
<rect width="222" height="162" fill="white"/>
</clipPath>
</defs>
</svg>
